<svg width="14" height="11" viewBox="0 0 14 11" fill="none" xmlns="http://www.w3.org/2000/svg">
<path d="M0.666687 5.75623L0.202448 5.57054C0.154767 5.68974 0.154767 5.82272 0.202448 5.94193L0.666687 5.75623ZM13.3334 5.75623L13.7976 5.94193C13.8453 5.82272 13.8453 5.68974 13.7976 5.57053L13.3334 5.75623ZM7.00001 9.78004C4.92409 9.78004 3.4659 8.74736 2.50857 7.68365C2.02955 7.15141 1.6823 6.61748 1.45512 6.21657C1.34181 6.01661 1.25915 5.85113 1.20554 5.73741C1.17875 5.68058 1.15927 5.6368 1.14689 5.60823C1.1407 5.59395 1.1363 5.58349 1.13364 5.57711C1.13232 5.57393 1.13143 5.57176 1.13098 5.57065C1.13075 5.5701 1.13063 5.56981 1.13063 5.56979C1.13062 5.56978 1.13064 5.56984 1.13069 5.56996C1.13072 5.57002 1.13078 5.57017 1.13079 5.5702C1.13085 5.57036 1.13093 5.57054 0.666687 5.75623C0.202448 5.94193 0.202533 5.94214 0.202626 5.94237C0.202666 5.94247 0.202765 5.94272 0.202845 5.94292C0.203006 5.94332 0.203195 5.94378 0.203412 5.94432C0.203846 5.9454 0.204394 5.94675 0.205055 5.94837C0.206377 5.95161 0.208154 5.95593 0.210389 5.9613C0.214859 5.97205 0.221165 5.98698 0.229335 6.00584C0.245672 6.04354 0.269486 6.09695 0.301012 6.16382C0.364026 6.29749 0.458078 6.48543 0.585096 6.70958C0.838569 7.15689 1.22643 7.75391 1.76527 8.35262C2.84365 9.55082 4.55211 10.78 7.00001 10.78V9.78004ZM0.666687 5.75623C1.13093 5.94193 1.13085 5.9421 1.13079 5.94227C1.13078 5.9423 1.13072 5.94244 1.13069 5.9425C1.13064 5.94263 1.13062 5.94268 1.13063 5.94267C1.13063 5.94265 1.13075 5.94236 1.13098 5.94181C1.13143 5.9407 1.13232 5.93854 1.13364 5.93535C1.1363 5.92897 1.1407 5.91851 1.14689 5.90423C1.15927 5.87566 1.17875 5.83188 1.20554 5.77506C1.25915 5.66133 1.34181 5.49585 1.45512 5.29589C1.6823 4.89498 2.02955 4.36105 2.50857 3.82881C3.4659 2.7651 4.92409 1.73242 7.00001 1.73242V0.732422C4.55211 0.732422 2.84365 1.96164 1.76527 3.15984C1.22643 3.75856 0.838569 4.35557 0.585096 4.80288C0.458078 5.02703 0.364026 5.21497 0.301012 5.34864C0.269486 5.41551 0.245672 5.46892 0.229335 5.50662C0.221165 5.52548 0.214859 5.54042 0.210389 5.55116C0.208154 5.55653 0.206377 5.56085 0.205055 5.5641C0.204394 5.56572 0.203846 5.56707 0.203412 5.56814C0.203195 5.56868 0.203006 5.56915 0.202845 5.56955C0.202765 5.56975 0.202666 5.56999 0.202626 5.57009C0.202533 5.57032 0.202448 5.57054 0.666687 5.75623ZM7.00001 1.73242C9.07592 1.73242 10.5341 2.7651 11.4915 3.82881C11.9705 4.36105 12.3177 4.89499 12.5449 5.29589C12.6582 5.49585 12.7409 5.66133 12.7945 5.77506C12.8213 5.83188 12.8408 5.87567 12.8531 5.90423C12.8593 5.91851 12.8637 5.92897 12.8664 5.93535C12.8677 5.93854 12.8686 5.9407 12.8691 5.94181C12.8693 5.94237 12.8694 5.94266 12.8694 5.94268C12.8694 5.94269 12.8694 5.94263 12.8693 5.94251C12.8693 5.94244 12.8693 5.9423 12.8693 5.94227C12.8692 5.94211 12.8691 5.94193 13.3334 5.75623C13.7976 5.57053 13.7975 5.57032 13.7974 5.57009C13.7974 5.56999 13.7973 5.56974 13.7972 5.56954C13.797 5.56914 13.7968 5.56868 13.7966 5.56814C13.7962 5.56706 13.7956 5.56571 13.795 5.56409C13.7937 5.56085 13.7919 5.55653 13.7896 5.55116C13.7852 5.54041 13.7789 5.52548 13.7707 5.50662C13.7544 5.46892 13.7306 5.41551 13.699 5.34864C13.636 5.21497 13.542 5.02703 13.4149 4.80288C13.1615 4.35557 12.7736 3.75856 12.2348 3.15984C11.1564 1.96164 9.4479 0.732422 7.00001 0.732422V1.73242ZM13.3334 5.75623C12.8691 5.57053 12.8692 5.57036 12.8693 5.5702C12.8693 5.57016 12.8693 5.57002 12.8693 5.56996C12.8694 5.56983 12.8694 5.56978 12.8694 5.56979C12.8694 5.56981 12.8693 5.5701 12.8691 5.57065C12.8686 5.57176 12.8677 5.57392 12.8664 5.57711C12.8637 5.58349 12.8593 5.59395 12.8531 5.60823C12.8408 5.6368 12.8213 5.68058 12.7945 5.7374C12.7409 5.85113 12.6582 6.01661 12.5449 6.21657C12.3177 6.61748 11.9705 7.15141 11.4915 7.68365C10.5341 8.74736 9.07592 9.78004 7.00001 9.78004V10.78C9.4479 10.78 11.1564 9.55082 12.2348 8.35262C12.7736 7.75391 13.1615 7.15689 13.4149 6.70958C13.542 6.48543 13.636 6.29749 13.699 6.16382C13.7306 6.09695 13.7544 6.04354 13.7707 6.00584C13.7789 5.98699 13.7852 5.97205 13.7896 5.96131C13.7919 5.95593 13.7937 5.95161 13.795 5.94837C13.7956 5.94675 13.7962 5.9454 13.7966 5.94432C13.7968 5.94379 13.797 5.94332 13.7972 5.94292C13.7973 5.94272 13.7974 5.94247 13.7974 5.94237C13.7975 5.94214 13.7976 5.94193 13.3334 5.75623ZM7.00002 7.06576C6.27679 7.06576 5.6905 6.47946 5.6905 5.75623H4.6905C4.6905 7.03175 5.72451 8.06576 7.00002 8.06576V7.06576ZM8.30954 5.75623C8.30954 6.47946 7.72325 7.06576 7.00002 7.06576V8.06576C8.27553 8.06576 9.30954 7.03175 9.30954 5.75623H8.30954ZM7.00002 4.44671C7.72325 4.44671 8.30954 5.033 8.30954 5.75623H9.30954C9.30954 4.48072 8.27553 3.44671 7.00002 3.44671V4.44671ZM7.00002 3.44671C5.72451 3.44671 4.6905 4.48072 4.6905 5.75623H5.6905C5.6905 5.033 6.27679 4.44671 7.00002 4.44671V3.44671Z" fill="#172765"/>
</svg>
