<svg width="24" height="24" viewBox="0 0 24 24" fill="none" xmlns="http://www.w3.org/2000/svg">
<g clip-path="url(#clip0)">
<path fill-rule="evenodd" clip-rule="evenodd" d="M14.8 18.4C14.8168 18.4168 14.8336 18.4333 14.8503 18.4497C14.8777 18.4766 14.9051 18.5029 14.9325 18.5288C15.0003 18.5929 15.0682 18.6541 15.136 18.7124C15.424 18.9601 15.712 19.156 16 19.3L13.5 21.9C13.1 22.3 12.6 22.5 12 22.5C11.4 22.5 10.9 22.3 10.5 21.9L7.80005 19.2C8.20005 19 8.50005 18.7 8.80004 18.4L11.8 15.4L14.8 18.4ZM6.66737 18.146C6.83376 18.0798 6.99615 18.0001 7.15304 17.906C7.38202 17.7687 7.59926 17.6008 7.80005 17.4L11.4 13.8C11.6 13.5 12 13.5 12.3 13.8L15.9 17.4C15.9613 17.4525 16.024 17.5034 16.0881 17.5527C16.4483 17.8294 16.8525 18.0536 17.277 18.2018C17.6413 18.3289 18.0207 18.4 18.4 18.4H19.2L14.6 23C13.1 24.4 10.8 24.4 9.40005 23L4.80005 18.4H5.30005C5.64343 18.4 5.9868 18.3563 6.31908 18.2634C6.43673 18.2305 6.55299 18.1915 6.66737 18.146Z" fill="#172765"/>
<path fill-rule="evenodd" clip-rule="evenodd" d="M4.80005 5.6H5.20005C5.68433 5.6 6.16862 5.71582 6.62174 5.91629C7.01071 6.08838 7.37672 6.32286 7.70005 6.6L11.3 10.2C11.3795 10.2795 11.4661 10.3379 11.554 10.3753C11.798 10.4789 12.053 10.4205 12.2 10.2L15.8 6.6C15.8168 6.58327 15.8336 6.56678 15.8506 6.55051C15.8975 6.50542 15.9454 6.46208 15.994 6.42045C16.1906 6.25214 16.4003 6.11184 16.6191 5.99765C16.7729 5.91741 16.9312 5.85006 17.0928 5.79493C17.3278 5.71471 17.5697 5.66037 17.8143 5.62986C17.9754 5.60976 18.1377 5.6 18.3 5.6H19L14.6 1.1C14.5833 1.0833 14.5665 1.06679 14.5496 1.05049C13.1617 -0.284056 10.9348 -0.283497 9.45221 1.05216C9.43472 1.06792 9.41733 1.08387 9.40005 1.1L4.80005 5.6ZM7.80005 4.8C8.07622 4.93808 8.30471 5.12383 8.55137 5.32434C8.66197 5.41425 8.77621 5.50712 8.90005 5.6L11.9 8.6L14.9 5.6C15.1888 5.21493 15.5703 4.92254 16.0445 4.72281C16.0629 4.71507 16.0814 4.70746 16.1 4.7L13.5 2.1C12.7 1.3 11.3 1.3 10.5 2.1L7.80005 4.8Z" fill="#172765"/>
<path fill-rule="evenodd" clip-rule="evenodd" d="M22.4 12C22.4 11.4 22.2 10.9 21.8 10.5L19.5 8.2H18.4C18.1256 8.2 17.9348 8.28371 17.7512 8.45112C17.7341 8.46669 17.7171 8.48298 17.7001 8.5L14.2 12L17.8 15.5C17.9997 15.6996 18.299 15.7996 18.499 15.8C18.4993 15.8 18.4997 15.8 18.5 15.8H19.6L21.9 13.5C22.148 13.252 22.3192 12.9656 22.3896 12.6407C22.4327 12.4416 22.438 12.228 22.4 12ZM20.1 17.3L18.5 17.3C18.4994 17.3 18.4987 17.3 18.4981 17.3H18.3C17.7 17.3 17.1 17.1 16.6 16.6L13 13C12.952 12.9439 12.9007 12.8924 12.8467 12.8453C12.5797 12.6125 12.2455 12.4894 11.9 12.4762C11.5343 12.4622 11.1559 12.5713 10.8314 12.8036C10.8135 12.8164 10.7957 12.8296 10.7782 12.8432C10.7165 12.8908 10.6569 12.9431 10.6 13L7.00005 16.6C6.60005 17 5.90005 17.3 5.30005 17.3H3.80005L1.10005 14.6C1.08392 14.5827 1.06797 14.5653 1.05221 14.5478C-0.283447 13.0652 -0.284006 10.8384 1.05054 9.45049C1.06684 9.43353 1.08335 9.4167 1.10005 9.4L3.80005 6.7H5.30005C5.90005 6.7 6.60005 7 7.00005 7.4L10.7 11C10.7475 11.0475 10.8 11.0925 10.8563 11.1345C11.1558 11.3583 11.5634 11.5 11.9 11.5C12.2236 11.5 12.6125 11.3692 12.9081 11.1604C12.9208 11.1515 12.9332 11.1424 12.9455 11.1333C13.0011 11.0915 13.053 11.047 13.1 11L16.7001 7.4C17.1 7 17.8 6.7 18.4 6.7H20.2001L22.9 9.4C23.9355 10.3664 24.2562 11.8094 23.8292 13.0709C23.6514 13.5961 23.3441 14.0899 22.9048 14.5048C22.8707 14.537 22.8358 14.5687 22.8 14.6L20.1 17.3ZM9.50005 12L6.00005 15.5C5.98303 15.517 5.96601 15.5333 5.94893 15.5489C5.76529 15.7163 5.57452 15.8 5.30005 15.8L4.40005 15.8L2.10005 13.5C1.30005 12.7 1.30005 11.3 2.10005 10.5L4.40005 8.2H5.30005C5.48336 8.2 5.75069 8.28401 5.94802 8.45203C5.9532 8.45644 5.95833 8.46091 5.96341 8.46544C5.97595 8.4766 5.98817 8.48813 6.00005 8.5L9.50005 12Z" fill="#172765"/>
</g>
<defs>
<clipPath id="clip0">
<rect width="24" height="24" fill="white"/>
</clipPath>
</defs>
</svg>
